<svg id="Capa_1" data-name="Capa 1" xmlns="http://www.w3.org/2000/svg" viewBox="0 0 616.86 511.5"><title>Artboard 2</title><path d="M344,317.06a32.87,32.87,0,1,1-32.87-32.87A32.87,32.87,0,0,1,344,317.06Z"/><line x1="39.38" y1="95.98" x2="311.12" y2="320.81"/><rect x="145.25" y="32.05" width="60" height="352.69" transform="translate(-97.03 210.58) rotate(-50.4)"/><line x1="578.09" y1="88.45" x2="311.12" y2="320.81"/><rect x="267.64" y="174.63" width="353.93" height="60" transform="translate(-25.1 342.17) rotate(-41.04)"/><path d="M615.29,150.24c-1.44-27.16-6.74-45.82-14.34-62a125.27,125.27,0,0,0-35.68-45.32,157.88,157.88,0,0,0-54.6-29.44C491,7.19,468.61,2.8,435.83,1.6,402.8.3,392.32,0,308.55,0S214.3.3,181.39,1.5s-55.32,5.59-74.84,11.87A156.59,156.59,0,0,0,51.83,42.92C36.16,55.7,24,71.18,16.27,88.15,8.68,104.42,3.38,123,1.93,150.13.36,177.49,0,186.17,0,255.55s.36,78.06,1.81,105.31,6.75,45.82,14.34,62C24,440,36.16,455.4,51.83,468.18a157.88,157.88,0,0,0,54.6,29.44c19.64,6.29,42.06,10.68,74.85,11.88s43.39,1.5,127.15,1.5,94.25-.3,127.16-1.5,55.32-5.59,74.84-11.88c41.47-13.27,74.25-40.43,90.28-74.76,7.59-16.28,12.9-34.84,14.34-62s1.81-35.93,1.81-105.31S616.74,177.49,615.29,150.24ZM559.73,358.87c-1.33,24.95-6.39,38.43-10.61,47.41-10.36,22.27-31.7,39.93-58.57,48.52-10.85,3.49-27.24,7.69-57.25,8.78-32.55,1.2-42.31,1.5-124.63,1.5s-92.2-.3-124.63-1.5c-30.13-1.09-46.4-5.29-57.25-8.78a98.62,98.62,0,0,1-35.43-19.07,79.75,79.75,0,0,1-23-29.34c-4.22-9-9.28-22.57-10.6-47.42-1.45-27-1.81-35-1.81-103.22s.36-76.37,1.81-103.22c1.32-25,6.38-38.43,10.6-47.41A78.07,78.07,0,0,1,91.48,75.76,99.72,99.72,0,0,1,126.92,56.7c10.84-3.49,27.24-7.68,57.25-8.78,32.54-1.2,42.3-1.5,124.62-1.5s92.2.3,124.63,1.5c30.13,1.1,46.4,5.29,57.25,8.78A98.75,98.75,0,0,1,526.1,75.76a79.63,79.63,0,0,1,23,29.36c4.22,9,9.28,22.55,10.61,47.41,1.45,26.95,1.81,35,1.81,103.22S561.18,331.92,559.73,358.87Z"/></svg>